<mxfile host="app.diagrams.net" agent="Mozilla/5.0 (Macintosh; Intel Mac OS X 10_15_7) AppleWebKit/537.36 (KHTML, like Gecko) Chrome/130.0.0.0 Safari/537.36" version="24.8.0">
  <diagram name="Page-1" id="ZyzO2luwYPxQ3S3YGxus">
    <mxGraphModel dx="1224" dy="624" grid="1" gridSize="10" guides="1" tooltips="1" connect="1" arrows="1" fold="1" page="1" pageScale="1" pageWidth="850" pageHeight="1100" math="0" shadow="0">
      <root>
        <mxCell id="0" />
        <mxCell id="1" parent="0" />
        <mxCell id="g5DdatFmQpTR3ij23BYN-25" value="Organizer" style="ellipse;aspect=fixed;strokeWidth=2;whiteSpace=wrap;" vertex="1" parent="1">
          <mxGeometry x="671" y="20" width="84" height="84" as="geometry" />
        </mxCell>
        <mxCell id="g5DdatFmQpTR3ij23BYN-26" value="Participant" style="ellipse;aspect=fixed;strokeWidth=2;whiteSpace=wrap;" vertex="1" parent="1">
          <mxGeometry x="20" y="443" width="94" height="94" as="geometry" />
        </mxCell>
        <mxCell id="g5DdatFmQpTR3ij23BYN-27" value="Admin" style="ellipse;aspect=fixed;strokeWidth=2;whiteSpace=wrap;" vertex="1" parent="1">
          <mxGeometry x="340" y="1179" width="60" height="60" as="geometry" />
        </mxCell>
        <mxCell id="g5DdatFmQpTR3ij23BYN-28" value="Event Management" style="ellipse;aspect=fixed;strokeWidth=2;whiteSpace=wrap;" vertex="1" parent="1">
          <mxGeometry x="810" y="202" width="151" height="151" as="geometry" />
        </mxCell>
        <mxCell id="g5DdatFmQpTR3ij23BYN-29" value="User Management" style="ellipse;aspect=fixed;strokeWidth=2;whiteSpace=wrap;" vertex="1" parent="1">
          <mxGeometry x="572" y="626" width="142" height="142" as="geometry" />
        </mxCell>
        <mxCell id="g5DdatFmQpTR3ij23BYN-30" value="Registration" style="ellipse;aspect=fixed;strokeWidth=2;whiteSpace=wrap;" vertex="1" parent="1">
          <mxGeometry x="922" y="647" width="101" height="101" as="geometry" />
        </mxCell>
        <mxCell id="g5DdatFmQpTR3ij23BYN-31" value="Reporting &amp; Analytics" style="ellipse;aspect=fixed;strokeWidth=2;whiteSpace=wrap;" vertex="1" parent="1">
          <mxGeometry x="407" y="859" width="205" height="205" as="geometry" />
        </mxCell>
        <mxCell id="g5DdatFmQpTR3ij23BYN-32" value="Event Details" style="whiteSpace=wrap;strokeWidth=2;" vertex="1" parent="1">
          <mxGeometry x="1276" y="465" width="154" height="49" as="geometry" />
        </mxCell>
        <mxCell id="g5DdatFmQpTR3ij23BYN-33" value="User Profiles" style="whiteSpace=wrap;strokeWidth=2;" vertex="1" parent="1">
          <mxGeometry x="1276" y="937" width="150" height="49" as="geometry" />
        </mxCell>
        <mxCell id="g5DdatFmQpTR3ij23BYN-34" value="Registration Data" style="whiteSpace=wrap;strokeWidth=2;" vertex="1" parent="1">
          <mxGeometry x="1476" y="937" width="183" height="49" as="geometry" />
        </mxCell>
        <mxCell id="g5DdatFmQpTR3ij23BYN-35" value="Reports/Analytics Data" style="whiteSpace=wrap;strokeWidth=2;" vertex="1" parent="1">
          <mxGeometry x="866" y="1184" width="225" height="49" as="geometry" />
        </mxCell>
        <mxCell id="g5DdatFmQpTR3ij23BYN-36" value="|Event Details|" style="curved=1;startArrow=none;endArrow=block;exitX=-0.01;exitY=0.58;entryX=0;entryY=0.42;rounded=0;" edge="1" parent="1" source="g5DdatFmQpTR3ij23BYN-25" target="g5DdatFmQpTR3ij23BYN-28">
          <mxGeometry relative="1" as="geometry">
            <Array as="points">
              <mxPoint x="236" y="141" />
              <mxPoint x="236" y="177" />
            </Array>
          </mxGeometry>
        </mxCell>
        <mxCell id="g5DdatFmQpTR3ij23BYN-37" value="|Event Confirmation|" style="curved=1;startArrow=none;endArrow=block;exitX=1;exitY=0.23;entryX=1;entryY=0.61;rounded=0;" edge="1" parent="1" source="g5DdatFmQpTR3ij23BYN-28" target="g5DdatFmQpTR3ij23BYN-25">
          <mxGeometry relative="1" as="geometry">
            <Array as="points">
              <mxPoint x="1075" y="177" />
              <mxPoint x="1075" y="141" />
            </Array>
          </mxGeometry>
        </mxCell>
        <mxCell id="g5DdatFmQpTR3ij23BYN-38" value="|Request for event lists|" style="curved=1;startArrow=none;endArrow=block;exitX=-0.01;exitY=0.63;entryX=0;entryY=0.39;rounded=0;" edge="1" parent="1" source="g5DdatFmQpTR3ij23BYN-25" target="g5DdatFmQpTR3ij23BYN-28">
          <mxGeometry relative="1" as="geometry">
            <Array as="points">
              <mxPoint x="404" y="141" />
              <mxPoint x="404" y="177" />
            </Array>
          </mxGeometry>
        </mxCell>
        <mxCell id="g5DdatFmQpTR3ij23BYN-39" value="|Event List|" style="curved=1;startArrow=none;endArrow=block;exitX=1;exitY=0.35;entryX=1;entryY=0.58;rounded=0;" edge="1" parent="1" source="g5DdatFmQpTR3ij23BYN-28" target="g5DdatFmQpTR3ij23BYN-25">
          <mxGeometry relative="1" as="geometry">
            <Array as="points">
              <mxPoint x="1221" y="177" />
              <mxPoint x="1221" y="141" />
            </Array>
          </mxGeometry>
        </mxCell>
        <mxCell id="g5DdatFmQpTR3ij23BYN-40" value="|User Details|" style="curved=1;startArrow=none;endArrow=block;exitX=1;exitY=0.76;entryX=0;entryY=0.36;rounded=0;" edge="1" parent="1" source="g5DdatFmQpTR3ij23BYN-26" target="g5DdatFmQpTR3ij23BYN-29">
          <mxGeometry relative="1" as="geometry">
            <Array as="points">
              <mxPoint x="238" y="581" />
            </Array>
          </mxGeometry>
        </mxCell>
        <mxCell id="g5DdatFmQpTR3ij23BYN-41" value="|Profile Created/Updated|" style="curved=1;startArrow=none;endArrow=block;exitX=0.87;exitY=0;entryX=1;entryY=0.56;rounded=0;" edge="1" parent="1" source="g5DdatFmQpTR3ij23BYN-29" target="g5DdatFmQpTR3ij23BYN-26">
          <mxGeometry x="-0.1911" y="18" relative="1" as="geometry">
            <Array as="points">
              <mxPoint x="728" y="581" />
            </Array>
            <mxPoint as="offset" />
          </mxGeometry>
        </mxCell>
        <mxCell id="g5DdatFmQpTR3ij23BYN-42" value="|Event Registration|" style="curved=1;startArrow=none;endArrow=block;exitX=1;exitY=0.55;entryX=0.29;entryY=0;rounded=0;" edge="1" parent="1" source="g5DdatFmQpTR3ij23BYN-26" target="g5DdatFmQpTR3ij23BYN-30">
          <mxGeometry relative="1" as="geometry">
            <Array as="points">
              <mxPoint x="923" y="581" />
            </Array>
          </mxGeometry>
        </mxCell>
        <mxCell id="g5DdatFmQpTR3ij23BYN-43" value="|Registration Confirmation|" style="curved=1;startArrow=none;endArrow=block;exitX=0.5;exitY=0;entryX=1;entryY=0.436;rounded=0;exitDx=0;exitDy=0;entryDx=0;entryDy=0;entryPerimeter=0;" edge="1" parent="1" source="g5DdatFmQpTR3ij23BYN-30" target="g5DdatFmQpTR3ij23BYN-26">
          <mxGeometry relative="1" as="geometry">
            <Array as="points">
              <mxPoint x="1147.1" y="558.32" />
            </Array>
            <mxPoint x="1014.747775031363" y="647.0024684793005" as="sourcePoint" />
            <mxPoint x="114.00454689459033" y="470.31390724859085" as="targetPoint" />
          </mxGeometry>
        </mxCell>
        <mxCell id="g5DdatFmQpTR3ij23BYN-44" value="|Request for event lists|" style="curved=1;startArrow=none;endArrow=block;exitX=1;exitY=0.39;entryX=0;entryY=0.65;rounded=0;" edge="1" parent="1" source="g5DdatFmQpTR3ij23BYN-26" target="g5DdatFmQpTR3ij23BYN-28">
          <mxGeometry relative="1" as="geometry">
            <Array as="points">
              <mxPoint x="489" y="398" />
            </Array>
          </mxGeometry>
        </mxCell>
        <mxCell id="g5DdatFmQpTR3ij23BYN-45" value="|Event List|" style="curved=1;startArrow=none;endArrow=block;exitX=0;exitY=0.61;entryX=1;entryY=0.32;rounded=0;" edge="1" parent="1" source="g5DdatFmQpTR3ij23BYN-28" target="g5DdatFmQpTR3ij23BYN-26">
          <mxGeometry relative="1" as="geometry">
            <Array as="points">
              <mxPoint x="332" y="398" />
            </Array>
          </mxGeometry>
        </mxCell>
        <mxCell id="g5DdatFmQpTR3ij23BYN-46" value="|Reporting Parameters|" style="curved=1;startArrow=none;endArrow=block;exitX=1;exitY=0.41;entryX=1;entryY=0.73;rounded=0;" edge="1" parent="1" source="g5DdatFmQpTR3ij23BYN-27" target="g5DdatFmQpTR3ij23BYN-31">
          <mxGeometry relative="1" as="geometry">
            <Array as="points">
              <mxPoint x="787" y="1134" />
              <mxPoint x="787" y="1089" />
            </Array>
          </mxGeometry>
        </mxCell>
        <mxCell id="g5DdatFmQpTR3ij23BYN-47" value="|Feedback Summaries|" style="curved=1;startArrow=none;endArrow=block;exitX=0;exitY=0.7;entryX=0;entryY=0.29;rounded=0;" edge="1" parent="1" source="g5DdatFmQpTR3ij23BYN-31" target="g5DdatFmQpTR3ij23BYN-27">
          <mxGeometry relative="1" as="geometry">
            <Array as="points">
              <mxPoint x="189" y="1089" />
              <mxPoint x="189" y="1134" />
            </Array>
          </mxGeometry>
        </mxCell>
        <mxCell id="g5DdatFmQpTR3ij23BYN-48" value="|Event Participation Statistics|" style="curved=1;startArrow=none;endArrow=block;exitX=0;exitY=0.95;entryX=0.49;entryY=0;rounded=0;" edge="1" parent="1" source="g5DdatFmQpTR3ij23BYN-31" target="g5DdatFmQpTR3ij23BYN-27">
          <mxGeometry relative="1" as="geometry">
            <Array as="points">
              <mxPoint x="369" y="1089" />
              <mxPoint x="369" y="1134" />
            </Array>
          </mxGeometry>
        </mxCell>
        <mxCell id="g5DdatFmQpTR3ij23BYN-49" value="|Store/Fetch Event Details|" style="curved=1;startArrow=none;endArrow=block;exitX=1;exitY=0.73;entryX=0.15;entryY=0;rounded=0;" edge="1" parent="1" source="g5DdatFmQpTR3ij23BYN-28" target="g5DdatFmQpTR3ij23BYN-32">
          <mxGeometry relative="1" as="geometry">
            <Array as="points">
              <mxPoint x="1147" y="398" />
            </Array>
          </mxGeometry>
        </mxCell>
        <mxCell id="g5DdatFmQpTR3ij23BYN-50" value="|Store/Fetch Registration Data|" style="curved=1;startArrow=none;endArrow=block;exitX=0.85;exitY=1;entryX=0.04;entryY=0;rounded=0;" edge="1" parent="1" source="g5DdatFmQpTR3ij23BYN-30" target="g5DdatFmQpTR3ij23BYN-34">
          <mxGeometry relative="1" as="geometry">
            <Array as="points">
              <mxPoint x="1055" y="814" />
            </Array>
          </mxGeometry>
        </mxCell>
        <mxCell id="g5DdatFmQpTR3ij23BYN-51" value="|Store/Fetch User Profiles|" style="curved=1;startArrow=none;endArrow=block;exitX=0.87;exitY=1.01;entryX=0;entryY=0.13;rounded=0;" edge="1" parent="1" source="g5DdatFmQpTR3ij23BYN-29" target="g5DdatFmQpTR3ij23BYN-33">
          <mxGeometry relative="1" as="geometry">
            <Array as="points">
              <mxPoint x="728" y="814" />
            </Array>
          </mxGeometry>
        </mxCell>
        <mxCell id="g5DdatFmQpTR3ij23BYN-52" value="|Store/Fetch Reports|" style="curved=1;startArrow=none;endArrow=block;exitX=1;exitY=0.63;entryX=0.5;entryY=0.01;rounded=0;" edge="1" parent="1" source="g5DdatFmQpTR3ij23BYN-31" target="g5DdatFmQpTR3ij23BYN-35">
          <mxGeometry relative="1" as="geometry">
            <Array as="points">
              <mxPoint x="979" y="1089" />
            </Array>
          </mxGeometry>
        </mxCell>
        <mxCell id="g5DdatFmQpTR3ij23BYN-53" value="|Event Registration Data|" style="curved=1;startArrow=none;endArrow=block;exitX=1;exitY=0.95;entryX=0.7;entryY=0;rounded=0;" edge="1" parent="1" source="g5DdatFmQpTR3ij23BYN-28" target="g5DdatFmQpTR3ij23BYN-30">
          <mxGeometry relative="1" as="geometry">
            <Array as="points">
              <mxPoint x="1018" y="398" />
              <mxPoint x="1018" y="581" />
            </Array>
          </mxGeometry>
        </mxCell>
        <mxCell id="g5DdatFmQpTR3ij23BYN-54" value="|Event Participation Data|" style="curved=1;startArrow=none;endArrow=block;exitX=0;exitY=0.63;entryX=0.5;entryY=0;rounded=0;" edge="1" parent="1" source="g5DdatFmQpTR3ij23BYN-30" target="g5DdatFmQpTR3ij23BYN-31">
          <mxGeometry relative="1" as="geometry">
            <Array as="points">
              <mxPoint x="509" y="814" />
            </Array>
          </mxGeometry>
        </mxCell>
      </root>
    </mxGraphModel>
  </diagram>
</mxfile>
